<?xml version="1.0" standalone="no"?>
<!DOCTYPE svg PUBLIC "-//W3C//DTD SVG 20010904//EN"
 "http://www.w3.org/TR/2001/REC-SVG-20010904/DTD/svg10.dtd">
<svg version="1.0" xmlns="http://www.w3.org/2000/svg"
 width="700.000000pt" height="700.000000pt" viewBox="0 0 700.000000 700.000000"
 preserveAspectRatio="xMidYMid meet">
<metadata>
Created by potrace 1.11, written by Peter Selinger 2001-2013
</metadata>
<g transform="translate(0.000000,700.000000) scale(0.100000,-0.100000)"
fill="#000000" stroke="none">
<path d="M1623 6991 c-74 -18 -190 -90 -262 -161 -14 -14 -51 -56 -84 -95
l-58 -69 -163 -1 c-108 -1 -173 -5 -194 -14 -37 -15 -63 -66 -56 -107 3 -16
25 -130 50 -254 75 -370 175 -864 180 -885 2 -11 8 -45 14 -75 6 -30 13 -66
16 -80 3 -14 7 -36 10 -50 3 -14 23 -111 44 -217 22 -105 41 -202 44 -215 14
-69 26 -131 26 -133 0 -1 -44 -3 -97 -3 -94 -2 -99 -3 -128 -32 -26 -27 -30
-37 -31 -92 -2 -117 20 -278 58 -413 146 -526 545 -948 1058 -1119 127 -42
213 -62 368 -82 l52 -7 1 -1061 c0 -583 2 -1074 4 -1091 28 -265 169 -488 392
-621 67 -40 183 -86 253 -99 57 -11 243 -14 291 -4 74 14 82 16 151 42 255 93
458 334 509 607 9 48 13 306 14 980 1 974 2 976 51 1087 100 228 318 366 563
358 53 -2 103 -5 111 -7 8 -3 29 -8 45 -13 92 -23 226 -111 288 -188 70 -86
119 -189 135 -281 4 -23 7 -174 7 -336 0 -224 -3 -294 -12 -293 -21 4 -182
-46 -236 -74 -444 -224 -587 -772 -309 -1179 106 -156 278 -277 462 -325 116
-31 288 -31 402 -1 348 93 591 396 603 752 10 286 -128 552 -365 705 -90 58
-151 84 -251 109 l-87 21 0 285 c0 287 -4 352 -23 425 -95 357 -413 607 -775
608 -372 0 -670 -224 -787 -590 -21 -67 -21 -78 -25 -1008 -3 -1050 -1 -1020
-73 -1162 -119 -238 -403 -373 -659 -314 -222 51 -400 227 -456 451 -15 58
-17 173 -16 1130 0 586 1 1070 1 1076 1 6 27 14 59 18 120 14 274 46 347 73
253 93 431 199 603 358 319 297 501 684 527 1123 9 152 -18 185 -152 185 -43
0 -80 4 -83 9 -3 4 11 92 32 195 21 104 40 199 43 212 2 13 15 78 29 145 14
66 27 132 30 146 2 14 18 95 36 180 18 85 34 165 36 178 2 12 6 33 8 47 3 14
7 33 10 43 3 9 7 28 10 42 8 47 45 234 95 478 27 134 48 251 46 260 -2 9 -4
22 -4 28 -2 18 -35 51 -61 59 -14 5 -97 10 -185 11 -88 1 -163 2 -166 3 -3 0
-20 20 -37 44 -92 125 -230 236 -337 269 -265 83 -556 -141 -555 -427 1 -183
124 -356 300 -421 63 -23 201 -24 265 -1 102 35 214 125 323 260 l55 68 88 -2
c49 -1 89 -2 89 -4 0 -1 -12 -58 -26 -126 -14 -68 -28 -135 -30 -149 -3 -14
-12 -59 -20 -100 -9 -41 -18 -86 -20 -100 -2 -14 -7 -36 -10 -50 -3 -14 -57
-279 -120 -590 -63 -311 -117 -572 -118 -580 -2 -8 -7 -35 -11 -60 -11 -68
-14 -70 -131 -69 -145 2 -174 -19 -180 -136 -2 -33 -6 -76 -10 -95 -3 -19 -8
-46 -10 -60 -9 -51 -48 -157 -81 -220 -118 -223 -315 -380 -568 -451 -116 -33
-324 -33 -445 1 -382 106 -645 430 -664 819 -4 75 -20 112 -56 131 -12 6 -68
12 -125 12 -58 1 -105 4 -106 7 -1 8 -3 18 -34 166 -15 72 -29 141 -31 155 -3
14 -30 149 -61 300 -31 151 -59 293 -63 315 -4 22 -35 177 -69 345 -35 168
-65 316 -67 330 -3 14 -11 59 -20 100 -8 41 -17 83 -19 93 -3 15 6 17 88 17
l92 0 40 -56 c95 -133 256 -255 377 -285 188 -46 415 84 488 279 93 247 -49
521 -302 586 -61 15 -148 18 -195 7z"/>
</g>
</svg>
