<svg id="Layer_1" enable-background="new 0 0 512 512" height="512" viewBox="0 0 512 512" width="512" xmlns="http://www.w3.org/2000/svg"><g><g fill="#9fc3d7"><path d="m93.15 39.609v-15h-26.878c-2.249 0-4.38 1.01-5.805 2.75-1.424 1.741-1.992 4.029-1.547 6.234l30 148.566 14.703-2.969-28.185-139.581z"/><path d="m317.059 27.359c-1.425-1.74-3.556-2.75-5.805-2.75h-26.878v15h17.712l-28.186 139.582 14.703 2.969 30-148.566c.446-2.205-.122-4.493-1.546-6.235z"/></g><path d="m342.771 270.986c-32.53 0-58.996 26.463-58.996 58.99v123.034c0 24.231-19.716 43.965-43.95 43.99h-.047c-11.744 0-22.785-4.57-31.095-12.871-8.319-8.31-12.9-19.361-12.9-31.119v-159.742c0-4.143-3.357-7.5-7.5-7.5s-7.5 3.357-7.5 7.5v159.742c0 15.767 6.144 30.588 17.299 41.731 11.144 11.132 25.947 17.26 41.696 17.259h.063c32.497-.033 58.935-26.496 58.935-58.99v-123.033c0-24.256 19.736-43.99 43.996-43.99s43.996 19.734 43.996 43.99v45.015c0 4.143 3.357 7.5 7.5 7.5s7.5-3.357 7.5-7.5v-45.015c-.001-32.528-26.467-58.991-58.997-58.991z" fill="#9fc3d7"/><path d="m453.228 426.44c0 32.51-26.45 58.96-58.96 58.96-1.46 0-2.9-.05-4.33-.16-30.5-2.22-54.63-27.75-54.63-58.8 0-31.04 24.13-56.57 54.63-58.79 1.43-.11 2.87-.16 4.33-.16 32.51 0 58.96 26.45 58.96 58.95z" fill="#4b6675"/><path d="m453.228 426.44c0 32.51-26.45 58.96-58.96 58.96-1.46 0-2.9-.05-4.33-.16 25.86-2.22 46.33-27.75 46.33-58.8 0-31.04-20.47-56.57-46.33-58.79 1.43-.11 2.87-.16 4.33-.16 32.51 0 58.96 26.45 58.96 58.95z" fill="#294a59"/><path d="m421.978 426.44c0 15.28-12.43 27.72-27.71 27.72-1.38 0-2.74-.1-4.07-.3-13.36-1.97-23.65-13.52-23.65-27.42s10.29-25.44 23.65-27.41c1.33-.2 2.69-.3 4.07-.3 15.28 0 27.71 12.43 27.71 27.71z" fill="#9fc3d7"/><path d="m421.978 426.44c0 15.28-12.43 27.72-27.71 27.72-1.38 0-2.74-.1-4.07-.3 9.65-1.97 17.07-13.52 17.07-27.42s-7.42-25.44-17.07-27.41c1.33-.2 2.69-.3 4.07-.3 15.28 0 27.71 12.43 27.71 27.71z" fill="#7ca3bf"/><g fill="#ff2261"><path d="m124.859 0c-20.4 0-36.389 25.73-38.145 28.665-1.419 2.371-1.419 5.331 0 7.703 1.756 2.935 17.745 28.666 38.145 28.666 17.932 0 32.52-14.587 32.52-32.518-.001-17.929-14.589-32.516-32.52-32.516z"/><path d="m290.812 28.665c-1.756-2.935-17.745-28.665-38.145-28.665-17.932 0-32.52 14.587-32.52 32.517 0 17.931 14.588 32.518 32.52 32.518 20.399 0 36.389-25.731 38.145-28.666 1.419-2.373 1.419-5.333 0-7.704z"/></g><path d="m308.388 180.68c0 66.21-53.88 120.09-120.11 120.09-4.39 0-8.73-.24-13-.71-60.13-6.49-107.1-57.56-107.1-119.38 0-4.15 3.36-7.5 7.5-7.5h40c4.14 0 7.5 3.35 7.5 7.5 0 35.89 29.21 65.09 65.1 65.09 35.9 0 65.11-29.2 65.11-65.09 0-4.15 3.36-7.5 7.5-7.5h40c4.14 0 7.5 3.35 7.5 7.5z" fill="#00b1ff"/><path d="m308.388 180.68c0 66.21-53.88 120.09-120.11 120.09-4.39 0-8.73-.24-13-.71 60.15-6.49 107.12-57.57 107.11-119.41 0-4.13-3.37-7.47-7.5-7.47h26c4.14 0 7.5 3.35 7.5 7.5z" fill="#008cff"/></g></svg>